<?xml version="1.0" standalone="no"?>
<!DOCTYPE svg PUBLIC "-//W3C//DTD SVG 20010904//EN"
 "http://www.w3.org/TR/2001/REC-SVG-20010904/DTD/svg10.dtd">
<svg version="1.0" xmlns="http://www.w3.org/2000/svg"
 width="96.000000pt" height="96.000000pt" viewBox="0 0 96.000000 96.000000"
 preserveAspectRatio="xMidYMid meet">

<g transform="translate(0.000000,96.000000) scale(0.100000,-0.100000)"
fill="#000000" stroke="none">
<path d="M361 944 c-253 -68 -410 -331 -346 -577 35 -136 127 -252 247 -312
38 -19 75 -32 83 -28 11 3 15 21 15 57 l0 51 -42 -3 c-55 -4 -100 24 -128 77
-11 22 -29 45 -40 51 -27 14 -25 30 3 30 14 0 43 -19 74 -50 37 -36 59 -50 80
-50 36 0 46 8 66 47 l17 31 -38 7 c-53 9 -113 45 -138 83 -45 66 -52 169 -15
237 9 17 16 55 17 85 0 31 4 61 8 68 11 19 47 14 94 -13 39 -22 47 -23 102
-13 42 7 78 7 120 0 55 -10 63 -9 102 13 47 27 83 32 94 13 4 -7 8 -37 8 -68
1 -30 8 -68 17 -85 37 -68 30 -171 -15 -237 -25 -38 -85 -74 -138 -83 l-38 -7
15 -28 c10 -19 15 -59 15 -118 0 -70 3 -91 15 -95 27 -11 149 60 207 121 183
191 183 472 1 663 -118 124 -300 177 -462 133z"/>
</g>
</svg>
